<?xml version="1.0" standalone="no"?>
<!DOCTYPE svg PUBLIC "-//W3C//DTD SVG 1.1//EN" "http://www.w3.org/Graphics/SVG/1.1/DTD/svg11.dtd" >
<svg xmlns="http://www.w3.org/2000/svg">
<metadata>Generated by IcoMoon</metadata>
<defs>
<font id="edu" horiz-adv-x="1024">
<font-face units-per-em="1024" ascent="960" descent="-64" />
<missing-glyph horiz-adv-x="1024" />
<glyph unicode="&#x20;" horiz-adv-x="512" d="" />
<glyph unicode="&#xe900;" glyph-name="burger" horiz-adv-x="1365" d="M-0.005 331.636v0 232.728h1365.010v-232.728zM-0.005 717.552v0 232.728h1365.010v-232.728zM-0.005-54.279v0 232.728h1365.010v-232.728z" />
<glyph unicode="&#xe901;" glyph-name="ellipse-o" d="M512 960c-282.192 0-512-229.808-512-512s229.808-512 512-512c282.192 0 512 229.808 512 512s-229.808 512-512 512zM512 862.476c229.486 0 414.476-184.989 414.476-414.476s-184.989-414.476-414.476-414.476c-229.486 0-414.476 184.989-414.476 414.476s184.989 414.476 414.476 414.476z" />
<glyph unicode="&#xe902;" glyph-name="ellipse" d="M0 448c0 282.77 229.23 512 512 512s512-229.23 512-512v0c0-282.77-229.23-512-512-512s-512 229.23-512 512v0z" />
<glyph unicode="&#xe903;" glyph-name="youtube" d="M418.714 335.77c76.8 39.868 152.986 79.326 229.854 119.194-77.107 40.209-153.259 79.906-229.854 119.91v-239.104zM418.714 574.874v-239.104l20.189 10.469c62.179 32.266 123.828 64.211 186.075 96.483l23.59 12.249-23.536 12.249c-62.437 32.547-124.114 64.7-186.129 97.077zM446.352 529.222c47.367-24.72 94.702-49.389 142.296-74.197-47.488-24.613-94.821-49.141-142.296-73.766zM860.843 277.094c-8.875-38.434-40.277-66.799-78.165-70.997-89.634-10.035-180.361-10.103-270.677-10.035-90.385-0.068-181.111 0-270.78 10.001-37.854 4.233-69.291 32.597-78.097 71.031-12.629 54.784-12.629 114.551-12.629 170.906s0.171 116.156 12.766 170.906c8.841 38.434 40.277 66.799 78.097 71.031 89.668 10.035 180.429 10.069 270.78 10.035 90.317 0.034 181.077 0 270.677-10.035 37.888-4.233 69.325-32.563 78.165-71.031 12.629-54.75 12.493-114.551 12.493-170.906s0-116.156-12.629-170.906zM512 960c-282.761 0-512-229.239-512-512s229.239-512 512-512c282.761 0 512 229.239 512 512s-229.239 512-512 512z" />
<glyph unicode="&#xe904;" glyph-name="faq" horiz-adv-x="1075" d="M494.899 140.8v102.4h102.4v-102.4zM546.099 28.672c-231.588 0-419.328 187.74-419.328 419.328s187.74 419.328 419.328 419.328v0c231.471-0.291 419.037-187.856 419.328-419.3v-0.028c0-231.588-187.74-419.328-419.328-419.328v0zM546.099 960c-282.778 0-512-229.222-512-512s229.222-512 512-512 512 229.222 512 512-229.222 512-512 512zM745.267 599.040c-22.287 90.803-102.985 157.111-199.17 157.111-113.108 0-204.8-91.692-204.8-204.8 0-0.334 0.001-0.668 0.002-1.002v0.052h102.4c4.63 52.888 48.706 94.065 102.4 94.065 56.758 0 102.769-46.011 102.769-102.769 0-3.064-0.134-6.097-0.397-9.092l0.027 0.388c-10.311-48.888-53.089-85.057-104.316-85.057-1.307 0-2.608 0.024-3.904 0.070l0.187-0.005c-25.167 0-45.568-20.401-45.568-45.568v0-108.032h102.4v58.368c89.066 23.528 153.663 103.377 153.663 198.313 0 17.020-2.076 33.556-5.989 49.366l0.295-1.407z" />
<glyph unicode="&#xe905;" glyph-name="up" horiz-adv-x="1479" d="M739.381 903.675l-739.389-739.389 171.962-171.962 567.664 567.427 567.427-567.427 171.962 171.962z" />
<glyph unicode="&#xe906;" glyph-name="palette" d="M824.893 448c-45.507 0-85.32 39.813-85.32 85.32s39.813 85.361 85.32 85.361c45.507 0 85.32-39.854 85.32-85.361 0-45.466-39.813-85.32-85.32-85.32zM654.213 675.574c-45.466 0-85.32 39.813-85.32 85.32s39.813 85.32 85.32 85.32c45.507 0 85.361-39.813 85.361-85.32s-39.854-85.32-85.361-85.32zM369.787 675.574c-45.507 0-85.361 39.813-85.361 85.32s39.854 85.32 85.361 85.32c45.466 0 85.32-39.813 85.32-85.32s-39.813-85.32-85.32-85.32zM199.066 448c-45.507 0-85.32 39.813-85.32 85.32s39.813 85.361 85.32 85.361c45.507 0 85.32-39.854 85.32-85.361 0-45.466-39.813-85.32-85.32-85.32zM512 960c-284.426 0-512-227.574-512-512s227.574-512 512-512c45.507 0 85.32 39.813 85.32 85.32 0 22.774-5.693 39.854-22.733 56.934-11.387 17.039-22.774 34.12-22.774 56.852 0 45.507 39.813 85.32 85.361 85.32h102.4c159.252 0 284.426 125.174 284.426 284.508 0 250.266-227.574 455.066-512 455.066z" />
<glyph unicode="&#xe907;" glyph-name="rss" d="M687.991 192c0 115.371-44.919 223.881-126.532 305.493-77.738 78.121-185.337 126.466-304.227 126.466-0.433 0-0.866-0.001-1.299-0.002h0.067v96.085c141.039 0 273.613-54.955 373.35-154.658 95.515-95.024 154.626-226.561 154.626-371.904 0-0.509-0.001-1.018-0.002-1.526v0.080zM495.991 192c-0.175 132.473-107.518 239.817-239.975 239.991h-0.017v96.017c185.276 0 336.009-150.733 336.009-336.009zM320 192c-35.346 0-64 28.654-64 64s28.654 64 64 64v0c35.346 0 64-28.654 64-64s-28.654-64-64-64v0zM512 960c-282.761 0-512-229.239-512-512s229.239-512 512-512c282.761 0 512 229.239 512 512s-229.239 512-512 512z" />
<glyph unicode="&#xe908;" glyph-name="education" d="M560.545 267.7c-17.711-10.847-40.353-16.839-63.791-16.839s-46.080 5.992-63.753 16.839l-288.692 177.038s-26.055 16.005-26.055-20.177v-176.811c0-93.146 169.453-193.536 378.501-193.536s378.501 100.39 378.501 193.536v186.747c0 29.051-18.508 14.867-18.508 14.867zM976.896 585.595c22.187 13.615 22.187 35.878 0 49.455l-439.789 219.932c-22.187 13.615-58.482 13.615-80.668 0l-439.789-219.932c-22.187-13.577-22.187-35.84 0-49.455l439.789-269.729c22.187-13.615 58.482-13.615 80.668 0zM958.692 185.818v297.832s0.228 14.108-8.154 9.481c-6.713-3.793-23.173-12.933-28.975-17.977-6.713-5.841-5.196-18.887-5.196-18.887v-270.488c0-3.868-3.3-5.689-4.855-6.599-15.416-9.063-25.6-25.567-25.6-44.45 0-28.382 23.008-51.39 51.39-51.39 0.080 0 0.16 0 0.24 0.001h-0.012c28.419 0.006 51.454 23.046 51.454 51.465 0 18.891-10.178 35.404-25.349 44.356l-0.24 0.131c-1.517 0.872-4.703 2.655-4.703 6.447z" />
<glyph unicode="&#xe909;" glyph-name="book" d="M151.969 827.259h-0.076c0 0 0 0 0 0-19.543 0-35.385-15.842-35.385-35.385 0-0.053 0-0.107 0-0.16v0.008-533.125c0.065-19.627 15.979-35.515 35.61-35.537h0.002c82.754-0.19 221.412-17.446 317.061-117.57v557.928c0.001 0.107 0.002 0.234 0.002 0.362 0 6.525-1.835 12.621-5.017 17.801l0.085-0.148c-78.469 126.407-229.3 145.636-312.244 145.825zM876.999 258.598v533.125c0 0.045 0 0.098 0 0.152 0 19.529-15.821 35.363-35.345 35.385h-0.116c-82.944-0.19-233.775-19.418-312.282-145.825-3.074-5.018-4.895-11.092-4.895-17.592 0-0.149 0.001-0.297 0.003-0.446v0.023-557.89c95.649 100.087 234.306 117.343 317.061 117.532 19.617 0.043 35.51 15.923 35.575 35.53v0.006zM958.009 704.303h-25.79v-445.705c-0.107-50.054-40.633-90.606-90.666-90.757h-0.015c-70.163-0.152-185.913-13.881-267.909-91.477 141.767 34.74 291.233 12.136 376.377-7.244 2.415-0.587 5.189-0.924 8.040-0.924 19.584 0 35.461 15.876 35.461 35.461 0 0.031 0 0.063 0 0.094v-0.005 565.020c-0.022 19.618-15.919 35.515-35.535 35.537h-0.002zM61.326 258.598v445.705h-25.79c-19.618-0.022-35.515-15.919-35.537-35.535v-564.985c0-0.026 0-0.058 0-0.089 0-19.584 15.876-35.461 35.461-35.461 2.852 0 5.625 0.337 8.282 0.972l-0.241-0.049c85.182 19.38 234.61 41.946 376.377 7.206-81.958 77.596-197.708 91.326-267.909 91.477-50.031 0.172-90.536 40.716-90.643 90.746v0.010z" />
<glyph unicode="&#xe90a;" glyph-name="bulb" d="M897.458 615.377c-19.952 171.473-167.036 309.682-349.774 328.704-10.954 1.148-22.435 1.831-36.15 2.11-12.753-0.236-24.977-0.996-37.050-2.266l1.83 0.156c-182.737-19.022-329.821-157.231-349.774-328.704-13.56-116.55 30.099-229.655 119.839-310.334 41.239-37.081 70.873-79.872 85.333-122.508h102.71v272.818h-38.788c-42.791 0-77.576 32.644-77.576 72.766s34.785 72.735 77.576 72.735c42.76 0 77.576-32.613 77.576-72.735v-36.399h77.576v36.399c0 40.122 34.785 72.735 77.576 72.735 42.76 0 77.576-32.613 77.576-72.735s-34.816-72.766-77.576-72.766h-38.788v-272.818h102.71c14.46 42.636 44.094 85.426 85.333 122.508 89.709 80.679 133.399 193.784 119.839 310.303zM473.522 168.913v288.768h76.955v-288.768zM666.965 522.473c-0.853 20.609-17.768 36.993-38.509 36.993s-37.655-16.384-38.506-36.916l-0.003-0.077v-38.509h38.509c21.225 0 38.478 17.253 38.478 38.478zM588.986 30.891l-17.315-23.087c-7.23-9.65-18.742-15.422-30.813-15.422h-57.716c-12.102 0-23.583 5.772-30.813 15.422l-17.346 23.087zM338.727 50.129c0-10.612 8.626-19.239 19.239-19.239h28.92l34.63-46.173c14.229-18.748 36.504-30.748 61.585-30.813h57.758c24.142 0 47.166 11.512 61.626 30.813l34.63 46.173h28.889c10.625 0 19.239 8.613 19.239 19.239v0c-1.427 61.75 0 93.898 0 93.898h-346.515s1.738-37.267 0-93.867zM395.543 560.95c-20.454-1.037-36.646-17.874-36.646-38.493s16.192-37.456 36.554-38.489l0.092-0.004h38.478v38.478c0 21.256-17.253 38.54-38.478 38.54z" />
<glyph unicode="&#xe90b;" glyph-name="instagram" horiz-adv-x="1058" d="M751.445 565.111v110.729l-110.763-0.341 0.341-110.729zM523.844 333.039c63.386 0 115.029 51.541 115.029 114.961 0 25.020-8.192 48.128-21.743 67.004-21.058 29.143-54.925 47.902-93.175 47.957h-0.009c-38.288-0.030-72.191-18.779-93.056-47.588l-0.231-0.335c-13.568-18.559-21.718-41.827-21.743-66.998v-0.006c0-63.493 51.442-114.971 114.921-115.029h0.006zM815.070 269.346c-0.039-62.144-50.396-112.513-112.532-112.572h-357.313c-62.141 0.058-112.499 50.428-112.538 112.568v357.278c0.058 62.129 50.408 112.479 112.532 112.538h357.279c62.144-0.039 112.513-50.396 112.572-112.532v-0.006zM523.878 960c-282.317 0-512-229.683-512-512 0-282.283 229.683-512 512-512 282.283 0 512 229.717 512 512 0 282.317-229.649 512-512 512zM702.566 462.916c-0.117-98.633-80.052-178.557-178.679-178.654h-0.009c-98.606 0.136-178.503 80.045-178.62 178.643v0.011c0 23.689 4.71 46.353 13.141 67.038h-97.519v-267.435c0-34.577 28.058-62.566 62.601-62.566h400.725c34.509 0 62.635 27.989 62.635 62.566v267.401h-97.553c8.465-20.651 13.278-43.315 13.278-67.004z" />
<glyph unicode="&#xe90c;" glyph-name="rocket" d="M430.531 529.469c-40.96-41.001-102.482-41.001-143.483 0-41.042 40.96-41.042 102.482 0 143.483 40.96 41.042 102.482 41.042 143.483 0 41.001-40.96 41.001-102.482 0-143.483zM994.345 493.588c-56.361 148.644-205.005 225.526-369.050 194.765-158.884 158.925-379.29 266.527-599.654 271.647-15.401 0-25.641-10.24-25.641-25.641 5.12-220.365 112.763-440.771 266.527-599.654-25.641-158.925 46.121-312.689 194.765-369.050-25.641 66.642-30.72 143.524-10.24 220.365 25.6-15.36 51.241-30.72 76.882-40.96 10.24-5.12 20.48-5.12 30.72 5.12l256.287 256.287c5.12 5.12 5.12 15.36 0 25.6-11.461 27.398-25.2 51.030-41.549 72.572l0.589-0.81c76.841 20.48 153.723 15.36 220.365-10.24zM1009.172 221.491l-103.793 103.793c-8.718 9.156-21 14.85-34.611 14.85s-25.893-5.694-34.593-14.83l-0.019-0.020c-9.156-8.718-14.85-21-14.85-34.611s5.694-25.893 14.83-34.593l0.020-0.019 103.834-103.752c8.716-9.143 20.99-14.829 34.591-14.829s25.874 5.685 34.573 14.809l0.018 0.019c9.143 8.716 14.829 20.99 14.829 34.591s-5.685 25.874-14.809 34.573l-0.019 0.018zM807.731 20.009l-103.834 103.793c-8.716 9.143-20.99 14.829-34.591 14.829s-25.874-5.685-34.573-14.809l-0.018-0.019c-9.156-8.718-14.85-21-14.85-34.611s5.694-25.893 14.83-34.593l0.020-0.019 103.793-103.752c8.718-9.156 21-14.85 34.611-14.85s25.893 5.694 34.593 14.83l0.019 0.020c9.156 8.718 14.85 21 14.85 34.611s-5.694 25.893-14.83 34.593l-0.020 0.019zM949.862 74.404l-143.36 143.319c-8.716 9.143-20.99 14.829-34.591 14.829s-25.874-5.685-34.573-14.809l-0.018-0.019c-9.156-8.718-14.85-21-14.85-34.611s5.694-25.893 14.83-34.593l0.020-0.019 143.36-143.319c8.716-9.143 20.99-14.829 34.591-14.829s25.874 5.685 34.573 14.809l0.018 0.019c9.156 8.718 14.85 21 14.85 34.611s-5.694 25.893-14.83 34.593l-0.020 0.019z" />
<glyph unicode="&#xe90d;" glyph-name="capitol" d="M242.483 555.725h539.034c11.999 0.528 21.528 10.385 21.528 22.467s-9.528 21.938-21.48 22.465l-0.048 0.002h-1.188c-10.617 123.215-102.808 222.079-221.828 242.784l-1.608 0.232v32.113h-39.322v78.602c-0.023 3.076-2.498 5.566-5.566 5.611h-0.004c-3.090-0.023-5.588-2.522-5.612-5.609v-78.604h-39.322v-32.113c-120.614-20.964-212.79-119.813-223.366-242.008l-0.070-1.008h-1.147c-11.822-0.736-21.13-10.504-21.13-22.446s9.309-21.71 21.066-22.443l0.064-0.003zM236.872 250.409h47.145v-258.294h-47.145zM614.195 250.409h47.145v-258.294h-47.145zM409.805-7.885h-47.145v258.294h47.145zM488.448 250.409h47.104v-258.294h-47.104zM787.128-7.885h-47.186v258.294h47.186zM893.788-7.885h-28.058v258.294h28.058c14.852 0.827 26.582 13.073 26.582 28.058s-11.73 27.23-26.509 28.054l-0.073 0.003h-763.535c-14.59-1.149-25.994-13.272-25.994-28.058s11.404-26.908 25.896-28.051l0.098-0.006h28.058v-258.294h-28.058c-14.852-0.827-26.582-13.073-26.582-28.058s11.73-27.23 26.509-28.054l0.073-0.003h763.494c14.852 0.827 26.582 13.073 26.582 28.058s-11.73 27.23-26.509 28.054l-0.073 0.003zM208.814 460.288h28.262c0-0.41-0.205-0.819-0.205-1.106v-121.201h56.115v121.201c0 0.41-0.164 0.819-0.164 1.106h26.624c0-0.41-0.164-0.819-0.164-1.106v-121.201h56.115v121.201c0 0.41-0.205 0.819-0.205 1.106h26.665c0-0.41-0.205-0.819-0.205-1.106v-121.201h56.115v121.201c0 0.41-0.205 0.819-0.205 1.106h26.665c0-0.41-0.205-0.819-0.205-1.106v-121.201h56.115v121.201c0 0.41-0.205 0.819-0.205 1.106h26.665c0-0.41-0.246-0.819-0.246-1.106v-121.201h56.156v121.201c0 0.41-0.205 0.819-0.205 1.106h26.665c0-0.41-0.205-0.819-0.205-1.106v-121.201h56.115v121.201c0 0.41-0.205 0.819-0.205 1.106h26.665c0-0.41-0.205-0.819-0.205-1.106v-121.201h56.115v121.201c0 0.41-0.205 0.819-0.205 1.106h28.262c15.496 0 28.058 12.562 28.058 28.058s-12.562 28.058-28.058 28.058v0h-606.29c-14.89-0.783-26.666-13.047-26.666-28.062 0-14.957 11.686-27.184 26.426-28.050l0.076-0.004z" />
<glyph unicode="&#xe90e;" glyph-name="checked" d="M807.567 608.563l-372.367-386.294c-3.883-4.289-9.472-6.972-15.688-6.972-0.216 0-0.431 0.003-0.646 0.010l0.031-0.001c-6.963 0-13.926 2.294-16.261 6.963l-181.535 195.42-4.669 4.669c-4.078 4.252-6.678 9.948-6.961 16.248l-0.002 0.054c0 4.628 2.294 11.633 6.963 16.261l32.604 32.604c4.109 4.291 9.884 6.958 16.282 6.958s12.173-2.667 16.274-6.95l2.343-2.343 128-137.298c2.055-2.152 4.947-3.49 8.151-3.49s6.096 1.338 8.147 3.485l0.004 0.004 311.828 323.502h2.335c4.109 4.291 9.884 6.958 16.282 6.958s12.173-2.667 16.274-6.95l32.612-32.612c9.298-6.963 9.298-20.931 0-30.269zM512 960c-283.935 0-512-228.065-512-512s228.065-512 512-512 512 228.065 512 512-228.065 512-512 512z" />
<glyph unicode="&#xe90f;" glyph-name="cityhall" d="M159.212 516.69h74.957v-478.7h112.353v410.010h110.305v-410.010h112.394v410.010h110.305v-410.010h112.394v478.7h72.868c11.1 0 20.111 3.113 27.034 9.339 6.401 5.664 10.417 13.899 10.417 23.073 0 0.313-0.005 0.624-0.014 0.934l0.001-0.046c0 11.059-4.833 20.111-14.541 27.034v2.089h-2.089l-353.812 183.173v54.067c20.808-9.667 52.388-11.059 94.7-4.096 42.312 6.922 78.725 4.833 109.24-6.267v118.62c-29.123 11.1-65.536 13.189-109.24 6.267-43.704-6.963-75.284-5.571-94.7 4.137v8.315c0 11.1-6.267 16.671-18.76 16.671-12.452 0-18.719-5.571-18.719-16.671v-181.043l-353.812-183.214h-2.048v-2.048c-11.141-6.963-16.671-15.974-16.671-27.075 0-9.708 3.809-17.695 11.428-23.962 6.895-5.81 15.876-9.34 25.682-9.34 0.115 0 0.23 0 0.346 0.001h-0.018zM196.69 4.69l-74.957-68.69h780.493l-72.827 68.69z" />
<glyph unicode="&#xe910;" glyph-name="contacts" d="M513.556 206.459h-221.839c0 159.949 140.493 159.908 171.622 201.728l3.604 19.046c-43.827 22.2-74.711 75.735-74.711 138.281 0 82.452 53.617 149.299 119.767 149.299s119.767-66.847 119.767-149.299c0-62.013-30.351-115.22-73.564-137.748l4.055-21.709c34.202-39.731 169.984-42.353 169.984-199.598zM512 960c-282.788 0-512-229.253-512-512s229.212-512 512-512c282.747 0 512 229.253 512 512 0 282.788-229.253 512-512 512z" />
<glyph unicode="&#xe911;" glyph-name="envelope" horiz-adv-x="1303" d="M1234.789 36.538c0-11.481-9.309-20.79-20.759-20.79h-1120.721c-11.481 0-20.79 9.309-20.79 20.79v830.154c0 11.481 9.309 20.79 20.79 20.79h1120.721c11.481 0 20.759-9.309 20.759-20.79zM1214.030 928.97h-1120.721c-34.395 0-62.278-27.883-62.278-62.278v0-830.154c0-34.382 27.865-62.278 62.278-62.278h1120.721c34.395 0 62.278 27.883 62.278 62.278v0 830.154c0 34.395-27.883 62.278-62.278 62.278v0zM93.333 944.485c-42.78 0-77.818-35.038-77.818-77.818v-830.121c0-42.765 35.021-77.818 77.818-77.818h1120.667c42.78 0 77.818 35.038 77.818 77.818v830.121c0 42.78-35.038 77.818-77.818 77.818zM93.333 913.455h1120.667c26.010 0 46.788-20.778 46.788-46.788v-830.121c0-26.010-20.778-46.788-46.788-46.788h-1120.667c-26.028 0-46.788 20.789-46.788 46.788v830.121c0 26.010 20.778 46.788 46.788 46.788zM93.333 902.97c-19.868 0-36.303-16.435-36.303-36.303v-830.121c0-19.868 16.435-36.303 36.303-36.303h1120.667c19.859 0 36.303 16.435 36.303 36.303v830.121c0 19.84-16.435 36.303-36.303 36.303zM93.333 871.939h1120.667c3.095 0 5.273-2.15 5.273-5.273v-830.121c0-3.095-2.232-5.273-5.273-5.273h-1120.667c-3.095 0-5.273 2.178-5.273 5.273v830.121c0 3.095 2.178 5.273 5.273 5.273zM1174.342 845.871c-0.547 0.051-1.184 0.081-1.827 0.081-5.097 0-9.765-1.837-13.378-4.885l0.031 0.026-478.798-402.215c-7.168-6.057-16.512-9.738-26.717-9.738s-19.55 3.682-26.779 9.789l0.062-0.051-478.798 402.215c-3.573 2.994-8.22 4.813-13.291 4.813-11.465 0-20.759-9.294-20.759-20.759 0-6.346 2.848-12.027 7.335-15.835l0.030-0.025 478.798-402.184c14.322-12.12 33.002-19.488 53.403-19.488s39.082 7.368 53.525 19.589l-0.122-0.1 478.798 402.184c4.569 3.834 7.453 9.547 7.453 15.934 0 10.834-8.299 19.729-18.886 20.676l-0.080 0.006zM1158.848 862.848v-6.848c-3.155-1.377-6.954-0.779-9.636-3.030l-478.848-402.242c-9.753-8.199-23.702-8.199-33.455 0l-478.848 402.303c-8.275 6.897-18.939 9.814-28.303 8.424s-17.185-6.364-22.727-12.97c-5.542-6.606-9.046-15.203-8.788-24.667s4.983-19.413 13.212-26.364v-0.061l478.788-402.182c36.556-30.78 90.232-30.78 126.788 0l478.788 402.182c11.915 9.95 15.378 25.862 11.333 38.727s-15.989 23.871-31.455 25.212zM134.364 830.727c0.919 0.137 1.496 0.36 3.818-1.576v0.061l478.788-402.18c21.137-17.77 52.257-17.77 73.394 0v-0.062l478.788 402.242c1.071 0.899 2.425 1.335 3.818 1.212h0.062c2.991-0.259 3.893-1.562 4.545-3.636s0.668-3.651-1.636-5.576l-0.062-0.061-478.788-402.182c-25.166-21.189-61.683-21.189-86.848 0l-478.788 402.182c-2.309 1.95-2.156 2.586-2.182 3.515s0.461 2.55 1.576 3.879c1.115 1.329 2.596 2.045 3.515 2.182zM430.204 409.957c-1.356 0.316-2.914 0.497-4.514 0.497-6.154 0-11.682-2.677-15.483-6.931l-0.018-0.020-290.568-311.296c-3.548-3.718-5.732-8.765-5.732-14.322 0-11.465 9.294-20.759 20.759-20.759 6.059 0 11.511 2.596 15.306 6.735l290.582 311.342c3.648 3.737 5.898 8.853 5.898 14.495 0 9.86-6.874 18.115-16.092 20.232l-0.14 0.027zM433.576 425.091c-12.814 2.854-26.237-1.47-34.97-11.273l-290.242-310.909c-7.509-7.879-11.093-18.423-10.242-27.939s5.409-17.649 11.758-23.576c6.349-5.927 14.812-9.987 24.364-10.182s19.807 4.15 27.152 12.182l290.242 310.97c19.272 19.76 8.877 54.707-18.061 60.727zM426.848 394.788c4.786-1.070 6.030-5.216 2.606-8.727l-0.121-0.121-290.788-311.577c-2.092-2.288-2.775-2.14-3.697-2.121s-2.467 0.613-3.758 1.818c-1.291 1.205-1.978 2.718-2.061 3.636s-0.32 1.574 1.818 3.818l0.061 0.062 290.848 311.638c1.283 1.44 3.209 1.995 5.091 1.576zM897.148 403.503c-3.826 4.373-9.417 7.119-15.649 7.119-11.465 0-20.759-9.294-20.759-20.759 0-5.723 2.316-10.905 6.061-14.66v0l290.537-311.327c3.788-3.969 9.12-6.437 15.027-6.437 11.465 0 20.759 9.294 20.759 20.759 0 5.406-2.067 10.33-5.453 14.024l0.014-0.015zM881.455 426.545c-9.702-0.106-18.237-4.186-24.667-10.182s-11.096-14.207-11.879-23.879c-0.783-9.671 3.088-20.4 10.909-28.242l290.304-311.092c7.392-7.756 17.551-11.843 26.97-11.576s17.721 4.259 24 10.121c6.279 5.862 10.844 13.895 11.758 23.273s-2.467 19.79-9.697 27.697l-0.062 0.062-290.242 310.97c-0.013 0.015-0.047-0.015-0.062 0-7.276 8.321-17.649 12.955-27.333 12.849zM881.818 395.515c0.909 0.010 1.51 0.258 3.636-2.182l0.183-0.242 0.183-0.183 290.424-311.151c2.013-2.202 1.787-2.89 1.697-3.818s-0.744-2.403-2-3.576c-1.256-1.173-2.825-1.731-3.758-1.758s-1.578-0.158-3.636 2l-290.789 311.577c-2.285 2.291-2.013 2.851-1.939 3.758s0.788 2.515 2.121 3.758c1.332 1.243 2.969 1.808 3.879 1.818z" />
<glyph unicode="&#xe912;" glyph-name="o-right" horiz-adv-x="1300" d="M19.692 542.154v-157.538h1198v157.538zM716.615 967.231l-102.692-119.538 453.615-389.692-453.615-389.769 102.692-119.538 592.692 509.308z" />
<glyph unicode="&#xe913;" glyph-name="facebook" d="M639.317 429.978h-83.285v-296.892h-123.426v296.892h-58.709v104.926h58.709v67.891c0 48.606 23.108 124.553 124.587 124.553l91.443-0.341v-101.854h-66.389c-10.82 0-26.18-5.427-26.18-28.604v-61.645h94.037zM512 960c-282.317 0-512-229.683-512-512 0-282.283 229.683-512 512-512 282.283 0 512 229.717 512 512 0 282.317-229.649 512-512 512z" />
<glyph unicode="&#xe914;" glyph-name="heart" d="M1024 622.039c0 152.718-123.803 276.521-276.521 276.521v0c-99.204-0.013-186.181-52.349-234.839-130.915l-0.681-1.181c-49.332 79.735-136.291 132.068-235.475 132.096h-0.004c-152.696 0-276.48-123.784-276.48-276.48v0c0-83.149 36.864-157.532 94.904-208.2l391.864-391.864c6.457-6.459 15.377-10.454 25.231-10.454s18.775 3.995 25.231 10.454l391.864 391.864c58.281 50.787 94.904 125.142 94.904 208.050 0 0.053 0 0.105 0 0.158v-0.008z" />
<glyph unicode="&#xe915;" glyph-name="down" horiz-adv-x="1664" d="M194.468 960l-193.167-193.167 830.566-830.833 830.833 830.566-193.167 193.167-637.399-637.399z" />
<glyph unicode="&#xe916;" glyph-name="laptop" d="M588.227 144.609h-152.412v35.062h152.453zM1022.73 210.678c-0.952 1.121-2.358 1.831-3.93 1.843h-1013.598c-0.005 0-0.011 0-0.018 0-2.873 0-5.202-2.329-5.202-5.202 0-0.275 0.021-0.544 0.062-0.808l-0.004 0.029c0.164-0.942 15.442-94.822 134.103-94.822h755.712c118.661 0 133.939 93.88 134.103 94.822 0.029 0.209 0.046 0.45 0.046 0.695 0 1.318-0.483 2.523-1.281 3.449l0.006-0.007zM163.021 710.676h697.958v-388.096h-697.958zM110.51 248.934h803.021c11.633 0 21.053 9.421 21.053 21.053v493.24c0 11.627-9.426 21.053-21.053 21.053v0h-803.062c-11.61-0.023-21.012-9.44-21.012-21.053 0 0 0 0 0 0v0-493.199c0-11.633 9.421-21.053 21.012-21.053z" />
<glyph unicode="&#xe917;" glyph-name="link" d="M826.027 455.893c-21.999-0.024-39.826-17.851-39.851-39.848v-302.466c-0.049-33.63-27.298-60.879-60.923-60.928h-554.501c-33.648 0.024-60.922 27.283-60.971 60.923v554.501c0 33.621 27.349 60.928 60.971 60.928h302.421c22.032 0 39.893 17.861 39.893 39.893s-17.861 39.893-39.893 39.893v0h-302.421c-77.685-0.073-140.642-63.029-140.715-140.708v-554.503c0.097-77.667 63.044-140.599 140.708-140.672h554.503c77.652 0.097 140.575 63.020 140.672 140.663v302.473c-0.024 21.999-17.851 39.826-39.848 39.851h-0.002zM977.28 960h-302.464c-22.032 0-39.893-17.861-39.893-39.893s17.861-39.893 39.893-39.893v0h262.571v-262.528c0-22.032 17.861-39.893 39.893-39.893s39.893 17.861 39.893 39.893v0 302.421c0 22.033-17.861 39.893-39.893 39.893-0.015 0-0.030 0-0.045 0h0.002zM1005.483 948.309c-7.219 7.216-17.19 11.678-28.203 11.678s-20.984-4.463-28.203-11.678l-554.496-554.496c-7.803-7.301-12.665-17.661-12.665-29.156 0-22.032 17.861-39.893 39.893-39.893 11.506 0 21.875 4.871 29.156 12.664l0.021 0.023 554.496 554.496c7.203 7.217 11.657 17.179 11.657 28.181s-4.454 20.965-11.658 28.182l0.001-0.001z" />
<glyph unicode="&#xe918;" glyph-name="newspaper" d="M950.845 82.268c-0.968-39.651-33.341-71.424-73.134-71.424s-72.166 31.773-73.132 71.334l-0.002 0.090v548.577h146.268v-548.577zM621.773 521.155h-438.927c-0.365-0.013-0.793-0.020-1.224-0.020-20.201 0-36.577 16.376-36.577 36.577s16.376 36.577 36.577 36.577c0.43 0 0.859-0.007 1.286-0.022l-0.062 0.002h438.927c0.365 0.013 0.793 0.020 1.224 0.020 20.201 0 36.577-16.376 36.577-36.577s-16.376-36.577-36.577-36.577c-0.43 0-0.859 0.007-1.286 0.022l0.062-0.002zM621.773 374.845h-438.927c-20.201 0-36.577 16.376-36.577 36.577s16.376 36.577 36.577 36.577h438.927c20.201 0 36.577-16.376 36.577-36.577s-16.376-36.577-36.577-36.577v0zM621.773 228.577h-438.927c-20.201 0-36.577 16.376-36.577 36.577s16.376 36.577 36.577 36.577h438.927c20.201 0 36.577-16.376 36.577-36.577s-16.376-36.577-36.577-36.577v0zM621.773 82.268h-438.927c-20.201 0-36.577 16.376-36.577 36.577s16.376 36.577 36.577 36.577h438.927c20.201 0 36.577-16.376 36.577-36.577s-16.376-36.577-36.577-36.577v0zM292.577 777.155h219.423c20.201 0 36.577-16.376 36.577-36.577s-16.376-36.577-36.577-36.577h-219.423c-20.201 0-36.577 16.376-36.577 36.577s16.376 36.577 36.577 36.577v0zM987.423 704h-182.845v219.423c0 20.193-16.384 36.577-36.577 36.577h-731.423c-20.193 0-36.577-16.384-36.577-36.577v-841.155c0-80.782 65.486-146.268 146.268-146.268h731.505c80.764 0.023 146.227 65.501 146.227 146.268v0 585.155c0 20.193-16.384 36.577-36.577 36.577z" />
<glyph unicode="&#xe919;" glyph-name="nost" d="M506.809 872.289c81.638 0 148.056-63.912 148.056-142.513s-66.383-142.548-148.056-142.548c-81.602 0-148.056 63.912-148.056 142.513s66.454 142.548 148.056 142.548zM609.315 429.109c20.551 9.251 34.216 22.634 34.216 41.172-0.031 6.787-2.014 13.106-5.415 18.43l0.083-0.139c3.315 5.174 5.298 11.48 5.332 18.246v0.009c0 10.593-4.449 19.421-12.006 26.836 68.537 40.536 114.511 113.17 114.511 196.114-0.035 126.941-107.343 230.223-239.228 230.223-131.814 0-239.157-103.283-239.157-230.223 0-82.979 45.974-155.613 114.511-196.184-7.556-7.345-12.006-16.243-12.006-26.801 0-6.78 2.013-12.818 5.297-18.255-3.306-5.188-5.277-11.507-5.297-18.285v-0.005c0-18.538 13.63-31.956 34.18-41.207v-47.104c-192.018-26.236-227.787-124.575-227.787-146.962v-65.783c0-24.223 20.409-43.855 45.55-43.855h569.485c25.176 0 45.55 19.633 45.55 43.855v65.783c-0.035 22.387-36.228 120.691-227.822 146.962zM757.301 70.638h-500.948c-24.611 0-44.526-25.247-44.526-56.461 0-31.179 19.95-56.461 44.491-56.461h500.983c24.611 0 44.491 25.282 44.491 56.497 0 31.179-19.915 56.426-44.491 56.426z" />
<glyph unicode="&#xe91a;" glyph-name="brief" d="M574.228 347.175v22.055c0 26.782-21.268 48.837-48.049 48.837s-48.837-22.055-48.837-48.837v-22.055c0-26.782 22.055-48.049 48.837-48.049s48.049 21.268 48.049 48.049zM606.523 323.545c-11.028-35.446-42.535-61.44-80.345-61.44s-70.105 25.994-80.345 61.44h-328.468c-21.268 0-40.172 4.726-58.289 13.391v-222.129c0-44.111 35.446-79.557 77.982-79.557h778.24c42.535 0 77.194 35.446 77.194 79.557v222.129c-17.329-8.665-37.022-13.391-57.502-13.391h-328.468zM1012.185 636.258v-181.957c0-43.323-34.658-78.769-77.194-78.769h-325.317c-0.788 22.843-10.24 43.323-25.206 57.502-0.788 0.788-1.575 1.575-1.575 1.575-3.151 3.151-7.089 6.302-11.028 8.665-0.788 0.788-2.363 1.575-3.938 2.363-3.151 1.575-6.302 3.938-9.452 5.514-3.151 0.788-5.514 1.575-8.665 2.363-2.363 0.788-4.726 1.575-7.089 2.363-5.514 0.788-11.028 1.575-16.542 1.575-6.302 0-11.815-0.788-17.329-1.575-2.363-0.788-4.726-1.575-7.089-2.363s-5.514-1.575-7.877-2.363c-3.938-1.575-6.302-3.938-9.452-5.514-1.575-0.788-3.151-1.575-4.726-2.363-3.938-2.363-7.089-5.514-10.24-8.665-0.788 0-1.575-0.788-1.575-0.788-15.754-14.966-25.206-35.446-25.994-58.289h-325.317c-42.535 0-77.194 35.446-77.194 78.769v181.957c0 44.111 36.234 79.557 80.345 79.557h185.895c11.815 70.892 72.468 126.031 145.723 126.031h148.874c73.255 0 134.695-55.138 145.723-126.031h185.895c44.111 0 80.345-35.446 80.345-79.557zM671.114 715.815c-9.452 29.932-37.809 51.988-70.892 51.988h-148.874c-33.083 0-60.652-22.055-70.892-51.988h290.658z" />
<glyph unicode="&#xe91b;" glyph-name="right" horiz-adv-x="614" d="M71.4 965.8l-72.4-72.4 437.5-437.5-437.5-437.5 72.4-72.4 509.9 509.9z" />
<glyph unicode="&#xe91c;" glyph-name="plus" horiz-adv-x="945" d="M388.462 920.615v-934.462h157.538v934.462zM0 532.154v-157.538h934.462v157.538z" />
<glyph unicode="&#xe91d;" glyph-name="phone" d="M524.765 960c-265.030 0-480.205-207.978-496.118-469.059h-3.059v-30.118c0-275.35 223.885-499.235 499.235-499.235s499.176 223.887 499.176 499.235c0 275.35-223.887 499.176-499.235 499.176zM524.765 899.765c242.796 0 439-196.148 439-438.941 0-242.796-196.148-439-438.941-439s-439 196.206-439 439c0 242.798 196.145 438.941 438.941 438.941zM655.059 377.103c-5.893 3.985-13.157 6.361-20.977 6.361s-15.084-2.376-21.111-6.446l0.134 0.085-18.191-12.258c-8.973-6.247-20.102-9.981-32.104-9.981-13.011 0-24.996 4.388-34.558 11.765l0.132-0.098c-19.306 14.858-36.42 29.7-52.634 45.462l0.139-0.135c-15.784 16.058-30.632 33.188-44.367 51.212l-0.96 1.313c-7.282 9.431-11.673 21.419-11.673 34.432 0 11.986 3.724 23.102 10.079 32.254l-0.123-0.187 12.288 18.221c8.493 12.71 8.915 29.214 0 41.924l-51.682 75.836c-9.155 13.439-24.385 22.148-41.65 22.148-8.452 0-16.417-2.087-23.407-5.775l0.274 0.132c-31.468-16.565-52.558-49.042-52.558-86.445 0-14.407 3.129-28.083 8.744-40.386l-0.249 0.609c31.934-70.878 72.121-131.818 120.415-185.296l-0.547 0.615 36.864-36.864c52.843-47.795 113.79-87.988 180.282-118.086l4.399-1.782c11.688-5.36 25.355-8.485 39.753-8.485 37.399 0 69.873 21.085 86.184 52.015l0.256 0.532c3.585 6.73 5.691 14.717 5.691 23.195 0 17.266-8.731 32.493-22.020 41.506l-0.176 0.112z" />
<glyph unicode="&#xe91e;" glyph-name="play" d="M111.304 960.134v-1017.233l786.343 485.153z" />
<glyph unicode="&#xe91f;" glyph-name="left" horiz-adv-x="683" d="M537.929 959.999l-511.918-512.082 511.918-511.918 119.059 119.059-392.86 392.86 392.86 393.024z" />
<glyph unicode="&#xe920;" glyph-name="repairing" d="M507.535 159.846c-161.588 0.027-292.571 131.026-292.571 292.618 0 161.609 131.010 292.618 292.618 292.618s292.618-131.010 292.618-292.618c0-55.406-15.399-107.216-42.15-151.382l0.734 1.305-128.123 128.164c8.96 20.596 14.172 44.587 14.172 69.796 0 0.086 0 0.172 0 0.259v-0.013c0 0.136 0.001 0.297 0.001 0.458 0 49.384-20.091 94.075-52.544 126.346l-0.008 0.008c-32.276 32.437-76.95 52.512-126.314 52.512-0.19 0-0.379 0-0.569-0.001h0.029c-15.974 0-31.908-2.13-47.309-6.308-6.848-1.987-12.121-7.3-14.015-14.029l-0.034-0.143c-0.392-1.473-0.617-3.164-0.617-4.908 0-5.701 2.406-10.84 6.259-14.457l0.011-0.010s63.242-63.734 84.378-84.91c2.253-2.212 2.253-7.496 1.925-9.421l-0.205-1.393c-2.13-23.265-6.226-51.2-9.626-61.932l-1.352-1.27-1.393-1.475c-10.895-3.482-39.24-7.619-62.874-9.748v0.123l-1.065-0.246c-0.3-0.024-0.65-0.037-1.003-0.037-3.818 0-7.267 1.583-9.725 4.129l-0.004 0.004c-25.354 25.263-52.33 52.083-79.334 78.875l-3.487 3.455c-3.701 3.957-8.922 6.453-14.727 6.553h-0.018c-9.14-0.262-16.73-6.597-18.894-15.098l-0.030-0.139c-3.933-14.038-6.193-30.159-6.193-46.807 0-49.582 20.050-94.481 52.483-127.032l-0.005 0.005c32.282-32.438 76.962-52.511 126.331-52.511 0.184 0 0.367 0 0.551 0.001h-0.028c0.099 0 0.216 0 0.333 0 25.175 0 49.136 5.197 70.869 14.578l-1.161-0.446 129.516-129.516c-44.413-28.846-98.734-45.998-157.062-45.998-0.137 0-0.273 0-0.41 0h0.022zM1011.917 508.826c-1.638 14.213-18.268 24.986-32.645 24.986-0.295-0.003-0.643-0.004-0.992-0.004-46.664 0-86.705 28.355-103.834 68.775l-0.278 0.739c-5.181 12.502-8.189 27.022-8.189 42.244 0 32.905 14.058 62.526 36.495 83.185l0.079 0.072c5.647 5.178 9.173 12.589 9.173 20.824 0 6.625-2.283 12.717-6.105 17.532l0.045-0.058c-23.996 30.348-50.388 57-79.451 80.478l-0.953 0.745c-4.784 3.839-10.928 6.16-17.614 6.16-8.307 0-15.778-3.584-20.949-9.291l-0.021-0.024c-30.269-33.505-84.582-45.957-126.566-28.426-40.747 17.587-68.748 57.419-68.748 103.791 0 2.248 0.066 4.481 0.196 6.697l-0.014-0.306c0.031 0.496 0.049 1.076 0.049 1.66 0 14.426-10.84 26.321-24.819 27.982l-0.133 0.013c-37.929 4.424-76.186 4.506-114.196 0.328-14.22-1.613-25.167-13.574-25.167-28.092 0-0.348 0.006-0.694 0.019-1.039l-0.001 0.050c0.045-1.187 0.070-2.581 0.070-3.981 0-46.725-28.378-86.823-68.84-103.997l-0.74-0.279c-41.492-16.957-95.437-4.588-125.624 28.59-5.188 5.68-12.626 9.23-20.894 9.23-6.592 0-12.657-2.257-17.465-6.040l0.061 0.046c-30.703-24.209-57.653-50.859-81.376-80.225l-0.749-0.958c-3.87-4.795-6.212-10.964-6.212-17.679 0-8.274 3.555-15.717 9.221-20.885l0.022-0.020c22.779-20.662 37.026-50.375 37.026-83.416 0-15.602-3.177-30.462-8.919-43.969l0.278 0.736c-17.531-41.697-60.826-68.608-110.428-68.608-0.552 0.039-1.197 0.062-1.847 0.062-14.317 0-26.088-10.898-27.471-24.851l-0.009-0.115c-4.506-38.093-4.506-77.005-0.205-115.425 1.597-14.336 18.719-24.986 33.26-24.986 44.237 1.147 86.63-26.214 104.448-69.509 5.203-12.519 8.224-27.060 8.224-42.307 0-32.904-14.073-62.522-36.529-83.162l-0.081-0.074c-5.619-5.168-9.127-12.556-9.127-20.763 0-6.617 2.281-12.702 6.099-17.511l-0.044 0.058c23.974-30.338 50.326-56.988 79.336-80.483l0.945-0.741c4.799-3.881 10.977-6.231 17.703-6.231 8.283 0 15.733 3.563 20.902 9.239l0.020 0.023c30.351 33.587 84.705 46.039 126.566 28.467 40.789-17.531 68.833-57.363 68.833-103.745 0-2.264-0.067-4.513-0.199-6.745l0.015 0.308c-0.030-0.484-0.047-1.050-0.047-1.619 0-14.425 10.839-26.319 24.817-27.982l0.133-0.013c17.57-2.175 37.906-3.417 58.532-3.417 19.611 0 38.961 1.122 57.987 3.306l-2.323-0.217c14.201 1.632 25.126 13.584 25.126 28.088 0 0.349-0.006 0.697-0.019 1.044l0.001-0.050c-0.046 1.204-0.072 2.618-0.072 4.039 0 46.689 28.364 86.752 68.801 103.899l0.739 0.278c41.779 17.080 95.478 4.588 125.665-28.59 10.035-10.895 26.624-12.247 38.339-3.195 30.683 24.213 57.618 50.863 81.333 80.222l0.751 0.96c3.888 4.791 6.242 10.965 6.242 17.688 0 8.277-3.568 15.72-9.25 20.875l-0.023 0.021c-22.787 20.656-37.039 50.368-37.039 83.409 0 15.574 3.166 30.408 8.89 43.894l-0.278-0.736c17.762 40.636 57.506 68.568 103.802 68.813h0.031l6.267-0.123c0.5-0.032 1.085-0.050 1.674-0.050 14.428 0 26.331 10.812 28.049 24.775l0.014 0.137c4.465 38.175 4.506 77.005 0.205 115.425z" />
<glyph unicode="&#xe921;" glyph-name="screwdriver" d="M28.099 99.758c-17.378-17.35-28.129-41.335-28.129-67.83 0-52.935 42.912-95.846 95.846-95.846 0.040 0 0.079 0 0.119 0h-0.006c24.576 0 49.111 9.339 67.83 28.058l314.86 314.941-135.66 135.496zM815.022 683.274l137.134 70.902 71.762 138.813-66.929 66.929-138.732-71.844-71.025-137.011-166.789-166.994 67.666-67.748zM845.046 319.345l-12.902 1.27c-23.388 0-45.588-4.792-66.314-12.452l-393.626 393.667c7.732 19.663 12.299 42.427 12.492 66.233l0.001 0.081-1.27 12.902c-6.799 99.779-89.006 178.872-190.505 178.872-29.532 0-57.221-7.209-82.248-19.169l127.427-127.386c6.717-6.758 11.305-14.664 14.377-23.060 2.597-6.684 4.102-14.421 4.102-22.51 0-17.496-7.041-33.347-18.443-44.875l0.006 0.006c-11.539-11.564-27.493-18.719-45.118-18.719-0.036 0-0.071 0-0.107 0h0.006c-7.578 0-15.032 1.638-22.2 4.342-8.981 3.288-16.66 8.213-23.029 14.468l-127.377 127.336c-11.973-24-19.048-52.258-19.21-82.153v-0.054c0-101.54 79.094-183.747 178.872-190.546l12.943-1.229c23.863 0.191 46.614 4.712 67.583 12.815l-1.31-0.445 393.544-393.626c-7.602-19.666-12.093-42.416-12.287-66.191l-0.001-0.083 1.311-12.943c6.636-99.86 88.924-178.872 190.464-178.872 29.491 0 57.262 7.086 82.207 19.169l-127.386 127.427c-6.225 6.359-11.168 14-14.391 22.489l-0.15 0.449c-2.585 6.666-4.083 14.381-4.083 22.446 0 35.199 28.535 63.734 63.734 63.734 0.024 0 0.049 0 0.073 0h-0.004c7.537 0 14.95-1.597 22.241-4.342 8.356-3.113 16.384-7.619 22.938-14.336l127.386-127.468c12.001 24.008 19.079 52.286 19.21 82.204v0.044c-0.082 101.499-79.135 183.706-178.954 190.464z" />
<glyph unicode="&#xe922;" glyph-name="search" d="M428.563 853.163c166.912 0 302.725-135.813 302.725-302.763 0-166.912-135.775-302.725-302.725-302.725s-302.763 135.775-302.763 302.725 135.813 302.763 302.763 302.763zM983.495 36.011l-241.474 251.070c59.789 70.554 96.142 162.619 96.142 263.175 0 0.051 0 0.102 0 0.153v-0.008c0 225.849-183.789 409.6-409.6 409.6s-409.6-183.751-409.6-409.6c0-225.811 183.751-409.6 409.6-409.6 84.764 0 165.547 25.6 234.648 74.145l243.257-253.004c10.164-10.581 23.855-16.384 38.495-16.384 29.476 0.077 53.341 23.989 53.341 53.475 0 14.356-5.657 27.391-14.864 36.997l0.018-0.019z" />
<glyph unicode="&#xe923;" glyph-name="twitter" d="M740.42 565.18c0.205-5.086 0.341-10.172 0.341-15.292 0-155.75-118.511-335.258-335.326-335.258-66.56 0-128.512 19.456-180.634 52.907 8.52-1.088 18.378-1.709 28.38-1.709 55.372 0 106.301 19.026 146.605 50.898l-0.496-0.378c-51.362 0.985-94.607 34.649-109.876 81.018l-0.238 0.834c6.706-1.344 14.415-2.113 22.303-2.113 10.995 0 21.64 1.494 31.745 4.289l-0.835-0.197c-54.31 11.247-94.549 58.691-94.549 115.534 0 0.003 0 0.005 0 0.008v0c0 0.512 0 1.024 0.068 1.502 15.872-8.806 34.031-14.131 53.35-14.746-31.794 21.421-52.429 57.288-52.429 97.976 0 0.043 0 0.087 0 0.13v-0.007c0 21.641 5.803 41.882 15.94 59.29 58.365-71.434 144.715-118.102 242.076-123.153l0.817-0.034c-2.012 8.149-3.166 17.504-3.166 27.129 0 65.075 52.754 117.828 117.828 117.828 33.968 0 64.578-14.373 86.082-37.37l0.062-0.067c28.241 5.647 53.334 15.573 75.948 29.196l-1.059-0.592c-9.161-27.78-27.499-50.434-51.356-64.898l-0.527-0.297c25.095 3.019 47.95 9.547 69.126 19.131l-1.474-0.597c-16.073-23.921-35.56-44.114-58.028-60.456l-0.681-0.472zM512 960c-282.317 0-512-229.683-512-512 0-282.283 229.683-512 512-512 282.283 0 512 229.717 512 512 0 282.317-229.649 512-512 512z" />
<glyph unicode="&#xe924;" glyph-name="television" d="M867.535 394.423c-38.625 0-70.042 31.416-70.042 70.042 0 38.666 31.416 70.124 70.042 70.124 38.666 0 70.083-31.457 70.083-70.083 0-38.666-31.416-70.083-70.042-70.083zM867.535 125.439c-38.625 0-70.042 31.416-70.042 70.042 0 38.666 31.416 70.083 70.042 70.083 38.666 0 70.083-31.416 70.083-70.042 0-38.666-31.416-70.083-70.042-70.083zM718.113 112.537c0-22.305-18.082-40.387-40.387-40.387h-516.793c-22.305 0-40.387 18.082-40.387 40.387v0 434.954c0 22.282 18.063 40.387 40.387 40.387h516.793c22.282 0 40.387-18.104 40.387-40.387zM949.701 710.88h-316.539l112.394 184.443c3.112 5.028 4.957 11.126 4.957 17.654 0 18.731-15.184 33.916-33.916 33.916-12.203 0-22.9-6.445-28.875-16.116l-0.084-0.146-133.939-219.75h-83.436l-133.939 219.75c-6.149 9.299-16.559 15.349-28.382 15.349-18.731 0-33.915-15.184-33.915-33.915 0-6.156 1.64-11.929 4.507-16.906l-0.087 0.164 112.435-184.443h-316.621c-40.96 0-74.26-33.3-74.26-74.301v-613.172c0-40.96 33.341-74.301 74.301-74.301h875.398c40.96 0 74.301 33.341 74.301 74.301v613.172c0 40.96-33.341 74.301-74.301 74.301z" />
<glyph unicode="&#xe925;" glyph-name="world" d="M682.923 410.325c5.589-22.187-55.68-15.147-70.656-35.84-14.976-20.736-51.584-6.827-60.075-2.816-8.491 3.968-40.96-9.301-38.144 13.227 2.816 22.613 22.613 23.893 43.819 33.237 21.205 9.259 51.755 40.107 36.736 44.16-70.741 18.987-94.848 85.419-94.848 85.419-4.267 0.811-3.2 46.933-21.547 48.299-18.347 1.323-28.288-5.333-55.125 0-26.88 5.291-21.205 22.571-25.429 59.733-4.267 37.163 11.307 25.173 19.712 37.12 0.725 1.067 1.707 2.005 2.603 2.987-99.216-34.734-169.125-127.5-169.259-236.613v-0.528c18.304-1.152 51.584-5.035 53.12-17.579 2.176-17.323 0-38.955 15.189-45.44 15.147-6.485 19.456 25.984 32.427 17.323 13.013-8.661 47.659-17.024 47.659-32.299 0-15.36-6.485-39.168 0-43.477s32.427-34.645 32.427-38.955c0-4.352 9.173-26.368 6.443-34.773-2.261-6.955-13.653-28.629-24.747-38.485 27.307-10.24 56.747-15.829 87.509-15.829 138.018 0.17 249.857 112.009 250.027 250.010v0.016c0 40.832-9.856 79.36-27.307 113.493 1.707-25.429 0.555-48.64 6.101-56.192 24.363-33.195-59.307-56.021-46.635-106.24zM500.736 157.227c-166.709 0.194-301.8 135.286-301.995 301.976v0.019c0.17 166.727 135.271 301.843 301.976 302.037h0.018c166.724-0.194 301.825-135.31 301.995-302.021v-0.016c-0.194-166.709-135.286-301.8-301.976-301.995h-0.019zM500.736 960c-276.565 0-500.736-224.213-500.736-500.736 0-276.565 224.171-500.779 500.736-500.779s500.779 224.213 500.779 500.779c0 276.523-224.213 500.736-500.779 500.736z" />
<glyph unicode="&#xe926;" glyph-name="r-plus" d="M216.615 960c-59.077 0-111.256-27.717-150.077-66.538s-66.538-91-66.538-150.077v-590.77c0-59.077 27.717-111.256 66.538-150.077s91-66.538 150.077-66.538h590.77c59.077 0 111.256 27.717 150.077 66.538s66.538 91 66.538 150.077v590.77c0 59.077-27.717 111.256-66.538 150.077s-91 66.538-150.077 66.538zM216.615 841.845h590.77c19.692 0 46.283-11.668 66.538-31.923s31.923-46.847 31.923-66.538v-590.77c0-19.692-11.668-46.283-31.923-66.538s-46.847-31.923-66.538-31.923h-590.77c-19.692 0-46.283 11.668-66.538 31.923s-31.923 46.847-31.923 66.538v590.77c0 19.692 11.668 46.283 31.923 66.538s46.847 31.923 66.538 31.923zM489.616 684.307v-467.231h78.769v467.231zM295.384 490.076v-78.769h467.231v78.769z" />
<glyph unicode="&#xe927;" glyph-name="rectangle" d="M216.615 960c-59.077 0-111.256-27.717-150.077-66.538s-66.538-91-66.538-150.077v-590.77c0-59.077 27.717-111.256 66.538-150.077s91-66.538 150.077-66.538h590.77c59.077 0 111.256 27.717 150.077 66.538s66.538 91 66.538 150.077v590.77c0 59.077-27.717 111.256-66.538 150.077s-91 66.538-150.077 66.538zM216.615 841.845h590.77c19.692 0 46.283-11.668 66.538-31.923s31.923-46.847 31.923-66.538v-590.77c0-19.692-11.668-46.283-31.923-66.538s-46.847-31.923-66.538-31.923h-590.77c-19.692 0-46.283 11.668-66.538 31.923s-31.923 46.847-31.923 66.538v590.77c0 19.692 11.668 46.283 31.923 66.538s46.847 31.923 66.538 31.923z" />
<glyph unicode="&#xe928;" glyph-name="right-menu" horiz-adv-x="750" d="M0.256 722.294l274.075-274.513-273.856-273.856 237.925-237.925 511.342 511.343-511.123 512.657z" />
<glyph unicode="&#xe929;" glyph-name="plus-b" d="M178.087 960c-98.083 0-178.087-80.004-178.087-178.087v-667.826c0-98.083 80.004-178.087 178.087-178.087h667.826c98.083 0 178.087 80.004 178.087 178.087v667.826c0 98.083-80.004 178.087-178.087 178.087zM178.087 893.217h667.826c62.24 0 111.304-49.064 111.304-111.304v-667.826c0-62.24-49.064-111.304-111.304-111.304h-667.826c-62.24 0-111.304 49.064-111.304 111.304v667.826c0 62.24 49.064 111.304 111.304 111.304zM795.336 495.549h-528.174v-89.043h528.174z" />
<glyph unicode="&#xe92a;" glyph-name="o-left" horiz-adv-x="1297" d="M1296.826 363.383v158.395h-1204.519v-158.395zM596.095-64l103.171 120.111-456.080 391.891 456.080 391.887-103.171 120.111-595.92-511.998z" />
</font>
</defs>
</svg>
